<svg width="100" height="100" viewBox="0 0 100 100" fill="none" xmlns="http://www.w3.org/2000/svg">
<circle cx="50" cy="50" r="47" fill="#FFFEFE" stroke="black" stroke-width="6"/>
<path d="M10 45.1122C10 25.7203 25.7203 10 45.1122 10V10C47.0514 10 48.6234 11.572 48.6234 13.5112V29.3117C48.6234 39.9773 39.9773 48.6234 29.3117 48.6234H13.5112C11.572 48.6234 10 47.0514 10 45.1122V45.1122Z" fill="black"/>
<path d="M90 45.1122C90 25.7203 74.2797 10 54.8878 10V10C52.9486 10 51.3766 11.572 51.3766 13.5112V29.3117C51.3766 39.9773 60.0227 48.6234 70.6883 48.6234H86.4888C88.428 48.6234 90 47.0514 90 45.1122V45.1122Z" fill="black"/>
<path d="M10 54.8878C10 74.2797 25.7203 90 45.1122 90V90C47.0514 90 48.6234 88.428 48.6234 86.4888V70.6883C48.6234 60.0227 39.9773 51.3766 29.3117 51.3766H13.5112C11.572 51.3766 10 52.9486 10 54.8878V54.8878Z" fill="black"/>
<path d="M90 54.8878C90 74.2797 74.2797 90 54.8878 90V90C52.9486 90 51.3766 88.428 51.3766 86.4888V70.6883C51.3766 60.0227 60.0227 51.3766 70.6883 51.3766H86.4888C88.428 51.3766 90 52.9486 90 54.8878V54.8878Z" fill="black"/>
</svg>
