<svg width="431" height="181" viewBox="0 0 431 181" fill="none" xmlns="http://www.w3.org/2000/svg">
<path d="M200.689 125.472C207.712 129.158 211.223 131 215 131V91.0004L177.552 71.291C177.497 71.3797 177.443 71.4691 177.39 71.5595C175 75.6175 175 80.6671 175 90.7664V91.2344C175 101.334 175 106.384 177.39 110.442C179.779 114.5 184.083 116.758 192.689 121.274L200.689 125.472Z" fill="#B0E7A7"/>
<path opacity="0.7" d="M237.309 60.7261L229.309 56.5279C222.286 52.8426 218.775 51 214.998 51C211.221 51 207.709 52.8426 200.687 56.5279L192.687 60.7261C184.272 65.1421 179.971 67.3993 177.55 71.2906L214.998 91L252.446 71.2906C250.025 67.3993 245.723 65.1421 237.309 60.7261Z" fill="#B0E7A7"/>
<path opacity="0.5" d="M252.61 71.5595C252.557 71.4691 252.503 71.3797 252.448 71.291L215 91.0004V131C218.777 131 222.288 129.158 229.311 125.472L237.311 121.274C245.918 116.758 250.221 114.5 252.61 110.442C255 106.384 255 101.334 255 91.2344V90.7664C255 80.6671 255 75.6175 252.61 71.5595Z" fill="#B0E7A7"/>
<path d="M145.016 89L95.0156 89.0004" stroke="#B0E7A7" stroke-width="2" stroke-linecap="round" stroke-dasharray="6 6"/>
<path d="M45 67H95V89" stroke="#E5E5E5" stroke-width="2" stroke-linecap="round" stroke-dasharray="6 6"/>
<path d="M45 20H95V91" stroke="#B0E7A7" stroke-width="2" stroke-linecap="round" stroke-dasharray="6 6"/>
<path d="M45 114H95V91" stroke="#E5E5E5" stroke-width="2" stroke-linecap="round" stroke-dasharray="6 6"/>
<path d="M45 161H95V114" stroke="#E5E5E5" stroke-width="2" stroke-linecap="round" stroke-dasharray="6 6"/>
<rect x="0.5" y="0.5" width="39" height="39" rx="7.5" stroke="#D6D6D6" stroke-linecap="round" stroke-dasharray="6 6"/>
<rect x="0.5" y="47.5" width="39" height="39" rx="7.5" stroke="#D6D6D6" stroke-linecap="round" stroke-dasharray="6 6"/>
<rect x="0.5" y="94.5" width="39" height="39" rx="7.5" stroke="#D6D6D6" stroke-linecap="round" stroke-dasharray="6 6"/>
<rect x="0.5" y="141.5" width="39" height="39" rx="7.5" stroke="#D6D6D6" stroke-linecap="round" stroke-dasharray="6 6"/>
<rect x="156" y="32" width="118" height="118" rx="9" stroke="#CFE8CB" stroke-width="2" stroke-dasharray="4 4"/>
<rect x="146" y="22" width="138" height="138" rx="9" stroke="#B0E7A7" stroke-width="2"/>
<path d="M285 89L335 89.0004" stroke="#E5E5E5" stroke-width="2" stroke-linecap="round" stroke-dasharray="6 6"/>
<path d="M385.016 67H335.016V89" stroke="#E5E5E5" stroke-width="2" stroke-linecap="round" stroke-dasharray="6 6"/>
<path d="M385.016 20H335.016V91" stroke="#E5E5E5" stroke-width="2" stroke-linecap="round" stroke-dasharray="6 6"/>
<path d="M385.016 114H335.016V91" stroke="#E5E5E5" stroke-width="2" stroke-linecap="round" stroke-dasharray="6 6"/>
<path d="M385.016 161H335.016V114" stroke="#E5E5E5" stroke-width="2" stroke-linecap="round" stroke-dasharray="6 6"/>
<rect x="-0.5" y="0.5" width="39" height="39" rx="7.5" transform="matrix(-1 0 0 1 429.016 0)" stroke="#D6D6D6" stroke-linecap="round" stroke-dasharray="6 6"/>
<rect x="-0.5" y="0.5" width="39" height="39" rx="7.5" transform="matrix(-1 0 0 1 429.016 47)" stroke="#D6D6D6" stroke-linecap="round" stroke-dasharray="6 6"/>
<rect x="-0.5" y="0.5" width="39" height="39" rx="7.5" transform="matrix(-1 0 0 1 429.016 94)" stroke="#D6D6D6" stroke-linecap="round" stroke-dasharray="6 6"/>
<rect x="-0.5" y="0.5" width="39" height="39" rx="7.5" transform="matrix(-1 0 0 1 429 141)" stroke="#D6D6D6" stroke-linecap="round" stroke-dasharray="6 6"/>
</svg>
