<svg xmlns="http://www.w3.org/2000/svg" version="1.1" xmlns:xlink="http://www.w3.org/1999/xlink" xmlns:svgjs="http://svgjs.dev/svgjs" width="120" height="120"><svg width="120" height="120" viewBox="0 0 120 120" fill="none" xmlns="http://www.w3.org/2000/svg">
<circle cx="60" cy="60" r="50" fill="#62FF00" fill-opacity="0.7"></circle>
<circle cx="60" cy="60" r="58" stroke="#62FF00" stroke-width="4"></circle>
<path d="M20.1429 83.0769L98.0852 38.0769" stroke="black" stroke-linecap="round"></path>
<path d="M98.0851 81.9231L20.1428 36.9231" stroke="black" stroke-linecap="round"></path>
<path d="M36.2967 99.8655L81.2967 21.9232" stroke="black" stroke-linecap="round"></path>
<path d="M81.2967 98.7119L36.2967 20.7696" stroke="black" stroke-linecap="round"></path>
<circle cx="59.9285" cy="60.9286" r="28.9286" fill="#62FF00"></circle>
<path d="M69.546 51.4518C64.8297 46.7341 61.6016 38.4958 59.9996 31C58.3951 38.4973 55.1704 46.7373 50.4524 51.455C45.7361 56.1694 37.4948 59.3973 30 61.0025C37.4978 62.6044 45.7377 65.8304 50.454 70.5482C55.1703 75.2642 58.3984 83.5042 60.0029 91C61.6049 83.5027 64.832 75.2627 69.5476 70.545C74.2639 65.829 82.5052 62.6027 90 60.9975C82.5039 59.3956 74.264 56.1679 69.546 51.4518Z" fill="white"></path>
<path d="M94 61H107" stroke="black" stroke-linecap="round"></path>
<path d="M13 61H26" stroke="black" stroke-linecap="round"></path>
<path d="M60 26V13" stroke="black" stroke-linecap="round"></path>
<path d="M60 107V94" stroke="black" stroke-linecap="round"></path>
</svg><style>@media (prefers-color-scheme: light) { :root { filter: contrast(1) brightness(1); } }
@media (prefers-color-scheme: dark) { :root { filter: none; } }
</style></svg>